<mxfile host="app.diagrams.net" modified="2021-07-20T17:08:04.369Z" agent="5.0 (X11)" etag="Fjg0IGv6yssVbNSm14wY" version="14.9.0" type="github">
  <diagram id="C5RBs43oDa-KdzZeNtuy" name="Page-1">
    <mxGraphModel dx="1035" dy="613" grid="1" gridSize="10" guides="1" tooltips="1" connect="1" arrows="1" fold="1" page="1" pageScale="1" pageWidth="827" pageHeight="1169" background="#283618" math="0" shadow="0">
      <root>
        <mxCell id="WIyWlLk6GJQsqaUBKTNV-0" />
        <mxCell id="WIyWlLk6GJQsqaUBKTNV-1" parent="WIyWlLk6GJQsqaUBKTNV-0" />
        <mxCell id="2Cb24R3oSiqkgb4w494D-0" value="" style="rounded=0;whiteSpace=wrap;html=1;fillColor=#BC6C25;strokeColor=#DDA15E;fontColor=#FEFAE0;" vertex="1" parent="WIyWlLk6GJQsqaUBKTNV-1">
          <mxGeometry x="60" y="40" width="120" height="30" as="geometry" />
        </mxCell>
        <mxCell id="2Cb24R3oSiqkgb4w494D-9" style="edgeStyle=orthogonalEdgeStyle;curved=0;rounded=1;sketch=0;orthogonalLoop=1;jettySize=auto;html=1;fontColor=#FEFAE0;strokeColor=#DDA15E;fillColor=#BC6C25;" edge="1" parent="WIyWlLk6GJQsqaUBKTNV-1" source="2Cb24R3oSiqkgb4w494D-1">
          <mxGeometry relative="1" as="geometry">
            <mxPoint x="390" y="55" as="targetPoint" />
          </mxGeometry>
        </mxCell>
        <mxCell id="2Cb24R3oSiqkgb4w494D-1" value="User" style="text;html=1;strokeColor=#DDA15E;fillColor=#BC6C25;align=center;verticalAlign=middle;whiteSpace=wrap;rounded=0;fontColor=#FEFAE0;" vertex="1" parent="WIyWlLk6GJQsqaUBKTNV-1">
          <mxGeometry x="60" y="40" width="120" height="30" as="geometry" />
        </mxCell>
        <mxCell id="2Cb24R3oSiqkgb4w494D-11" value="" style="rounded=0;whiteSpace=wrap;html=1;sketch=0;fontColor=#FEFAE0;strokeColor=#A87900;fillColor=#66FF66;" vertex="1" parent="WIyWlLk6GJQsqaUBKTNV-1">
          <mxGeometry x="60" y="70" width="120" height="30" as="geometry" />
        </mxCell>
        <mxCell id="2Cb24R3oSiqkgb4w494D-12" value="&lt;div&gt;name&lt;/div&gt;" style="text;html=1;strokeColor=none;fillColor=none;align=center;verticalAlign=middle;whiteSpace=wrap;rounded=0;sketch=0;fontColor=#FEFAE0;" vertex="1" parent="WIyWlLk6GJQsqaUBKTNV-1">
          <mxGeometry x="60" y="70" width="120" height="30" as="geometry" />
        </mxCell>
        <mxCell id="2Cb24R3oSiqkgb4w494D-13" value="" style="rounded=0;whiteSpace=wrap;html=1;sketch=0;fontColor=#FEFAE0;strokeColor=#A87900;fillColor=#66FF66;" vertex="1" parent="WIyWlLk6GJQsqaUBKTNV-1">
          <mxGeometry x="60" y="100" width="120" height="30" as="geometry" />
        </mxCell>
        <mxCell id="2Cb24R3oSiqkgb4w494D-14" value="&lt;div&gt;password&lt;/div&gt;" style="text;html=1;strokeColor=none;fillColor=none;align=center;verticalAlign=middle;whiteSpace=wrap;rounded=0;sketch=0;fontColor=#FEFAE0;" vertex="1" parent="WIyWlLk6GJQsqaUBKTNV-1">
          <mxGeometry x="60" y="100" width="120" height="30" as="geometry" />
        </mxCell>
        <mxCell id="2Cb24R3oSiqkgb4w494D-15" value="" style="rounded=0;whiteSpace=wrap;html=1;sketch=0;fontColor=#FEFAE0;strokeColor=#A87900;fillColor=#66FF66;" vertex="1" parent="WIyWlLk6GJQsqaUBKTNV-1">
          <mxGeometry x="320" y="310" width="120" height="30" as="geometry" />
        </mxCell>
        <mxCell id="2Cb24R3oSiqkgb4w494D-16" value="&lt;div&gt;name&lt;/div&gt;" style="text;html=1;strokeColor=none;fillColor=none;align=center;verticalAlign=middle;whiteSpace=wrap;rounded=0;sketch=0;fontColor=#FEFAE0;" vertex="1" parent="WIyWlLk6GJQsqaUBKTNV-1">
          <mxGeometry x="320" y="310" width="120" height="30" as="geometry" />
        </mxCell>
      </root>
    </mxGraphModel>
  </diagram>
</mxfile>
